<svg id="Layer_1" height="512" viewBox="0 0 128 128" width="512" xmlns="http://www.w3.org/2000/svg" data-name="Layer 1"><path d="m64.047 57.356-.047-41.856h-49.5v97.749h99.125v-8.91a20 20 0 0 0 -12.512-18.545l-24.555-9.915a20 20 0 0 1 -12.511-18.523z" fill="#9b6e42"/><path d="m101.113 85.794-24.555-9.915a20 20 0 0 1 -12.511-18.523l-.047-41.856h-49.5v4h45.5l.047 41.856a20 20 0 0 0 12.509 18.526l24.555 9.918a20 20 0 0 1 12.512 18.545v4.908h4v-8.91a20 20 0 0 0 -12.51-18.549z" fill="#6d4c41"/><rect fill="#596675" height="13.75" rx="2" width="58.84" x="9.83" y="1.75"/><path d="m14.5 113.249v13.001h8.592l2.001-4.499h4.414l2.001 4.499h6.264l2.001-4.499h4.414l2.001 4.499h6.264l2.001-4.499h4.414l2.001 4.499h6.264l2.001-4.499h4.414l2.001 4.499h6.264l2.001-4.499h4.414l2.001 4.499h6.264l2.001-4.499h4.414l2.001 4.499h8.717v-13.001z" fill="#596675"/><g fill="#373f47"><path d="m19.12 1.75v6.87a1.75 1.75 0 1 1 -3.5 0v-6.87z"/><path d="m26.42 1.75v6.87a1.75 1.75 0 1 1 -3.5 0v-6.87z"/><path d="m33.71 1.75v6.87a1.75 1.75 0 1 1 -3.5 0v-6.87z"/><path d="m41 1.75v6.87a1.75 1.75 0 1 1 -3.5 0v-6.87z"/><path d="m48.29 1.75v6.87a1.75 1.75 0 1 1 -3.5 0v-6.87z"/><path d="m55.58 1.75v6.87a1.75 1.75 0 1 1 -3.5 0v-6.87z"/><path d="m62.88 1.75v6.87a1.75 1.75 0 1 1 -3.5 0v-6.87z"/></g><path d="m14.5 83.25a54.672 54.672 0 0 1 44.679 23.163l4.821 6.836h-49.5z" fill="#ffca28"/><path d="m55.176 110.416 2 2.834h6.824l-4.821-6.836a54.672 54.672 0 0 0 -44.679-23.164v4.165a54.661 54.661 0 0 1 40.676 23.001z" fill="#ff8f00"/><path d="m51.583 27.333h12.417a0 0 0 0 1 0 0v6.5a0 0 0 0 1 0 0h-12.417a3.25 3.25 0 0 1 -3.25-3.25 3.25 3.25 0 0 1 3.25-3.25z" fill="#6d4c41"/><path d="m51.583 42.687h12.417a0 0 0 0 1 0 0v6.5a0 0 0 0 1 0 0h-12.417a3.25 3.25 0 0 1 -3.25-3.25 3.25 3.25 0 0 1 3.25-3.25z" fill="#6d4c41"/><path d="m64.073 58.042h-12.49a3.25 3.25 0 1 0 0 6.5h13.811a19.962 19.962 0 0 1 -1.321-6.5z" fill="#6d4c41"/><path d="m101.113 85.794-9.066-3.661-1.62 1.974a45.937 45.937 0 0 0 -10.427 29.142h33.625v-8.91a20 20 0 0 0 -12.512-18.545z" fill="#ffca28"/><path d="m101.113 85.794-9.066-3.661-1.62 1.974c-.61.744-1.186 1.51-1.746 2.286l8.429 3.4a20 20 0 0 1 12.512 18.545v4.908h4v-8.91a20 20 0 0 0 -12.509-18.542z" fill="#ff8f00"/><path d="m14.5 113.249h99.125v4h-99.125z" fill="#373f47"/><path d="m12.75 29.167a1.75 1.75 0 1 0 3.5 0v-11.917h46l.009 8.333h-10.676a5 5 0 0 0 0 10h10.689l.006 5.354h-10.7a5 5 0 0 0 0 10h10.712l.006 5.354h-10.713a5 5 0 0 0 0 10h12.64a21.661 21.661 0 0 0 11.677 11.209 1.75 1.75 0 0 0 1.311-3.246 18.174 18.174 0 0 1 -10.155-10.227c-.012-.038-.015-.078-.029-.116a18.2 18.2 0 0 1 -1.2-5.931v-.014c-.007-.2-.023-.407-.024-.612l-.045-40.1h.915a3.754 3.754 0 0 0 3.75-3.75v-9.754a3.754 3.754 0 0 0 -3.756-3.75h-54.834a3.754 3.754 0 0 0 -3.75 3.75v9.75a3.754 3.754 0 0 0 3.75 3.75h.917zm49.5 2.916h-10.667a1.5 1.5 0 0 1 0-3h10.667zm0 15.354h-10.667a1.5 1.5 0 0 1 0-3h10.667zm-10.667 15.355a1.5 1.5 0 0 1 0-3h10.865v.02q.085.75.219 1.486v.018q.137.746.324 1.476zm-40-49.292v-9.75a.25.25 0 0 1 .25-.25h3.792v5.125a1.75 1.75 0 0 0 3.5 0v-5.125h3.792v5.125a1.75 1.75 0 1 0 3.5 0v-5.125h3.792v5.125a1.75 1.75 0 0 0 3.5 0v-5.125h3.791v5.125a1.75 1.75 0 0 0 3.5 0v-5.125h3.792v5.125a1.75 1.75 0 0 0 3.5 0v-5.125h3.792v5.125a1.75 1.75 0 0 0 3.5 0v-5.125h3.792v5.125a1.75 1.75 0 0 0 3.5 0v-5.125h3.792a.25.25 0 0 1 .25.25v9.75a.25.25 0 0 1 -.25.25h-54.835a.25.25 0 0 1 -.25-.25z"/><path d="m14.5 38.417a1.75 1.75 0 0 0 -1.75 1.75v3.5a1.75 1.75 0 0 0 3.5 0v-3.5a1.75 1.75 0 0 0 -1.75-1.75z"/><path d="m101.769 84.171-9.069-3.661-6.055-2.445a1.75 1.75 0 0 0 -1.311 3.246l3.847 1.553-.107.136a47.818 47.818 0 0 0 -10.786 28.5h-13.381l-4.3-6.095a56.477 56.477 0 0 0 -44.357-23.852v-26.886a1.75 1.75 0 0 0 -3.5 0v71.583a1.75 1.75 0 0 0 1.75 1.75h8.592a1.751 1.751 0 0 0 1.6-1.039l1.539-3.46h2.139l1.539 3.46a1.751 1.751 0 0 0 1.6 1.039h6.263a1.751 1.751 0 0 0 1.6-1.039l1.539-3.46h2.139l1.539 3.46a1.751 1.751 0 0 0 1.6 1.039h6.263a1.751 1.751 0 0 0 1.6-1.039l1.539-3.46h2.139l1.539 3.46a1.751 1.751 0 0 0 1.6 1.039h6.264a1.751 1.751 0 0 0 1.6-1.039l1.539-3.46h2.138l1.539 3.46a1.751 1.751 0 0 0 1.6 1.039h6.263a1.751 1.751 0 0 0 1.6-1.039l1.539-3.46h2.139l1.539 3.46a1.751 1.751 0 0 0 1.6 1.039h6.263a1.751 1.751 0 0 0 1.6-1.039l1.539-3.46h2.141l1.539 3.46a1.751 1.751 0 0 0 1.6 1.039h8.717a1.75 1.75 0 0 0 1.75-1.75v-21.911a21.657 21.657 0 0 0 -13.609-20.168zm-9.989 1.046.8-.979 7.874 3.179a18.17 18.17 0 0 1 11.417 16.922v7.16h-30.086a44.313 44.313 0 0 1 9.995-26.282zm-34.031 22.205 2.876 4.077h-44.375v-26.47a52.986 52.986 0 0 1 41.499 22.393zm54.126 17.078h-5.83l-1.539-3.46a1.751 1.751 0 0 0 -1.6-1.039h-4.413a1.751 1.751 0 0 0 -1.6 1.039l-1.539 3.46h-3.99l-1.539-3.46a1.751 1.751 0 0 0 -1.6-1.039h-4.412a1.751 1.751 0 0 0 -1.6 1.039l-1.539 3.46h-3.99l-1.539-3.46a1.751 1.751 0 0 0 -1.6-1.039h-4.412a1.751 1.751 0 0 0 -1.6 1.039l-1.533 3.46h-4l-1.539-3.46a1.751 1.751 0 0 0 -1.6-1.039h-4.408a1.751 1.751 0 0 0 -1.6 1.039l-1.539 3.46h-3.99l-1.539-3.46a1.751 1.751 0 0 0 -1.6-1.039h-4.412a1.751 1.751 0 0 0 -1.6 1.039l-1.539 3.46h-3.99l-1.539-3.46a1.751 1.751 0 0 0 -1.6-1.039h-4.412a1.751 1.751 0 0 0 -1.6 1.039l-1.539 3.46h-5.704v-9.5h95.625z"/></svg>