<svg id="Capa_1" enable-background="new 0 0 512 512" height="512" viewBox="0 0 512 512" width="512" xmlns="http://www.w3.org/2000/svg"><g><g><g><path d="m496.041 334.724h-480.082c-4.672 0-8.459-3.787-8.459-8.459v-126.691c0-4.671 3.787-8.459 8.459-8.459h480.083c4.671 0 8.459 3.787 8.459 8.459v126.692c-.001 4.671-3.788 8.458-8.46 8.458z" fill="#c8c3ca"/></g></g><g><g><path d="m496.041 334.724h-480.082c-4.672 0-8.459-3.787-8.459-8.459v-126.691c0-4.671 3.787-8.459 8.459-8.459h480.083c4.671 0 8.459 3.787 8.459 8.459v126.692c-.001 4.671-3.788 8.458-8.46 8.458z" fill="#a29aa5"/></g></g><g><g><path d="m496.042 191.115h-30c4.671 0 8.458 3.787 8.458 8.459v126.692c0 4.672-3.787 8.459-8.458 8.459h30c4.671 0 8.458-3.787 8.458-8.459v-126.692c0-4.672-3.787-8.459-8.458-8.459z" fill="#8c818f"/></g></g><g><g><path d="m140.746 353.576h-86.48c-2.965 0-5.368-2.404-5.368-5.369v-108.192c0-2.965 2.404-5.368 5.368-5.368h86.481c2.965 0 5.368 2.404 5.368 5.368v108.193c0 2.964-2.404 5.368-5.369 5.368z" fill="#e38523"/></g></g><g><g><path d="m140.746 234.646h-30c2.965 0 5.368 2.404 5.368 5.368v108.193c0 2.965-2.404 5.369-5.368 5.369h30c2.965 0 5.368-2.404 5.368-5.369v-108.192c.001-2.965-2.403-5.369-5.368-5.369z" fill="#e1761c"/></g></g><g><g><path d="m62.424 353.576h70.163v31.515h-70.163z" fill="#e69642"/></g></g><g><g><path d="m145.297 414.353h-95.582c-3.022 0-5.472-2.45-5.472-5.472v-18.318c0-3.022 2.45-5.472 5.472-5.472h95.582c3.022 0 5.472 2.45 5.472 5.472v18.318c0 3.022-2.45 5.472-5.472 5.472z" fill="#e1761c"/></g></g><g><g><path d="m119.127 120.564-14.789-19.522c-3.43-4.527-10.234-4.527-13.664 0l-14.789 19.522c-10.428 13.766-16.072 30.563-16.072 47.833v66.249h75.386v-66.249c0-17.27-5.644-34.067-16.072-47.833z" fill="#e9a761"/></g></g><g><g><path d="m119.127 120.564-14.789-19.522c-3.43-4.527-10.234-4.527-13.664 0l-8.168 10.782 6.621 8.74c10.428 13.766 16.072 30.563 16.072 47.833v66.249h30v-66.249c0-17.27-5.644-34.067-16.072-47.833z" fill="#e69642"/></g></g><g><g><path d="m298.751 353.576h-86.481c-2.965 0-5.368-2.404-5.368-5.369v-108.192c0-2.965 2.404-5.368 5.368-5.368h86.481c2.965 0 5.368 2.404 5.368 5.368v108.193c.001 2.964-2.403 5.368-5.368 5.368z" fill="#e38523"/></g></g><g><g><path d="m298.751 234.646h-30c2.965 0 5.368 2.404 5.368 5.368v108.193c0 2.965-2.404 5.369-5.368 5.369h30c2.965 0 5.368-2.404 5.368-5.369v-108.192c.001-2.965-2.403-5.369-5.368-5.369z" fill="#e1761c"/></g></g><g><g><path d="m220.429 353.576h70.163v31.515h-70.163z" fill="#e69642"/></g></g><g><g><path d="m303.302 414.353h-95.582c-3.022 0-5.472-2.45-5.472-5.472v-18.318c0-3.022 2.45-5.472 5.472-5.472h95.582c3.022 0 5.472 2.45 5.472 5.472v18.318c0 3.022-2.45 5.472-5.472 5.472z" fill="#e1761c"/></g></g><g><g><path d="m277.132 120.564-14.789-19.522c-3.43-4.527-10.234-4.527-13.664 0l-14.789 19.522c-10.428 13.766-16.072 30.563-16.072 47.833v66.249h75.386v-66.249c0-17.27-5.644-34.067-16.072-47.833z" fill="#e9a761"/></g></g><g><g><path d="m277.132 120.564-14.789-19.522c-3.43-4.527-10.234-4.527-13.664 0l-8.168 10.782 6.621 8.74c10.428 13.766 16.072 30.563 16.072 47.833v66.249h30v-66.249c0-17.27-5.644-34.067-16.072-47.833z" fill="#e69642"/></g></g><g><g><path d="m456.756 353.576h-86.481c-2.965 0-5.368-2.404-5.368-5.369v-108.192c0-2.965 2.404-5.368 5.368-5.368h86.481c2.965 0 5.368 2.404 5.368 5.368v108.193c.001 2.964-2.403 5.368-5.368 5.368z" fill="#e38523"/></g></g><g><g><path d="m456.756 234.646h-30c2.965 0 5.368 2.404 5.368 5.368v108.193c0 2.965-2.404 5.369-5.368 5.369h30c2.965 0 5.368-2.404 5.368-5.369v-108.192c.001-2.965-2.403-5.369-5.368-5.369z" fill="#e1761c"/></g></g><g><g><path d="m378.434 353.576h70.163v31.515h-70.163z" fill="#e69642"/></g></g><g><g><path d="m461.307 414.353h-95.582c-3.022 0-5.472-2.45-5.472-5.472v-18.318c0-3.022 2.45-5.472 5.472-5.472h95.582c3.022 0 5.472 2.45 5.472 5.472v18.318c0 3.022-2.45 5.472-5.472 5.472z" fill="#e1761c"/></g></g><g><g><path d="m435.137 120.564-14.789-19.522c-3.43-4.527-10.234-4.527-13.664 0l-14.789 19.522c-10.428 13.766-16.072 30.563-16.072 47.833v66.249h75.386v-66.249c0-17.27-5.644-34.067-16.072-47.833z" fill="#e9a761"/></g></g><g><g><path d="m435.137 120.564-14.789-19.522c-3.43-4.527-10.234-4.527-13.664 0l-8.168 10.782 6.621 8.74c10.428 13.766 16.072 30.563 16.072 47.833v66.249h30v-66.249c0-17.27-5.644-34.067-16.072-47.833z" fill="#e69642"/></g></g><g><g><path d="m496.041 183.615h-37.332v-15.218c0-18.789-6.248-37.384-17.594-52.362l-14.79-19.523c-3.064-4.045-7.733-6.366-12.81-6.366-5.076 0-9.745 2.32-12.81 6.366l-14.788 19.522c-11.346 14.977-17.594 33.572-17.594 52.362v15.218h-67.619v-15.218c0-18.789-6.248-37.384-17.594-52.362l-14.789-19.523c-3.065-4.045-7.734-6.366-12.81-6.366s-9.745 2.32-12.811 6.366l-14.788 19.522c-11.346 14.977-17.594 33.572-17.594 52.362v15.218h-67.619v-15.218c0-18.789-6.248-37.384-17.594-52.362l-14.79-19.523c-3.064-4.045-7.733-6.366-12.81-6.366-5.076 0-9.745 2.32-12.811 6.366l-14.789 19.522c-11.345 14.977-17.593 33.573-17.593 52.362v15.218h-36.353c-8.8 0-15.959 7.159-15.959 15.959v126.692c0 8.799 7.159 15.958 15.959 15.958h25.438v5.983c0 7.096 5.772 12.869 12.868 12.869h.659v16.515h-5.21c-7.153 0-12.973 5.819-12.973 12.972v18.318c0 7.153 5.819 12.972 12.973 12.972h95.582c7.153 0 12.973-5.819 12.973-12.972v-18.318c0-7.153-5.819-12.972-12.973-12.972h-5.209v-16.515h.658c7.096 0 12.869-5.773 12.869-12.869v-5.983h45.787v5.983c0 7.096 5.772 12.869 12.868 12.869h.659v16.515h-5.21c-7.152 0-12.972 5.819-12.972 12.972v18.318c0 7.153 5.819 12.972 12.972 12.972h95.582c7.153 0 12.973-5.819 12.973-12.972v-18.318c0-7.153-5.819-12.972-12.973-12.972h-5.209v-16.515h.658c7.096 0 12.869-5.773 12.869-12.869v-5.983h45.787v5.983c0 7.096 5.772 12.869 12.868 12.869h.659v16.515h-5.21c-7.152 0-12.972 5.819-12.972 12.972v18.318c0 7.153 5.819 12.972 12.972 12.972h95.582c7.153 0 12.973-5.819 12.973-12.972v-18.318c0-7.153-5.819-12.972-12.973-12.972h-5.209v-16.515h.658c7.096 0 12.869-5.773 12.869-12.869v-5.983h26.416c8.8 0 15.959-7.159 15.959-15.958v-126.689c.003-8.8-7.156-15.959-15.956-15.959zm-112.718-15.217c0-15.54 5.167-30.919 14.551-43.305l14.788-19.522c.426-.563 1.281-.563 1.707-.001l14.789 19.522c9.383 12.387 14.551 27.766 14.551 43.305v58.749h-60.386zm-86.703 73.748v103.93h-6.027-70.163-6.027v-103.93h3.416 75.386zm-71.302-73.748c0-15.54 5.167-30.919 14.551-43.305l14.788-19.522c.426-.563 1.281-.563 1.707-.001l14.789 19.522c9.383 12.387 14.551 27.766 14.551 43.305v58.749h-60.386zm-158.005 0c0-15.539 5.167-30.919 14.55-43.305l14.789-19.522c.426-.563 1.281-.563 1.707-.001l14.789 19.522c9.383 12.387 14.551 27.766 14.551 43.305v58.749h-60.386zm-51.354 158.826c-.528 0-.959-.43-.959-.958v-126.692c0-.528.431-.959.959-.959h36.354v28.696c-6.17.945-10.916 6.273-10.916 12.704v24.096c0 4.142 3.357 7.5 7.5 7.5s7.5-3.358 7.5-7.5v-21.964h3.416 75.386 3.416v103.93h-6.027-70.163-6.027v-51.965c0-4.142-3.357-7.5-7.5-7.5s-7.5 3.358-7.5 7.5v33.113h-25.439zm127.311 79.629h-91.528v-14.262h10.683 70.163 10.682zm-18.182-29.262h-55.163v-16.515h55.163zm28.527-50.367v-87.209c0-6.43-4.746-11.758-10.916-12.704v-28.696h67.619v28.696c-6.17.945-10.916 6.273-10.916 12.704v87.209zm147.659 79.629h-91.526v-14.262h10.682 70.163 10.682v14.262zm-18.181-29.262h-55.163v-16.515h55.163zm28.527-50.367v-87.209c0-6.43-4.746-11.758-10.916-12.704v-28.696h67.619v28.696c-6.17.945-10.916 6.273-10.916 12.704v24.096c0 4.142 3.358 7.5 7.5 7.5 4.143 0 7.5-3.358 7.5-7.5v-21.964h3.416 75.386 3.416v103.93h-6.027-70.163-6.027v-51.965c0-4.142-3.357-7.5-7.5-7.5-4.142 0-7.5 3.358-7.5 7.5v33.113h-45.788zm147.659 79.629h-91.526v-14.262h10.682 70.163 10.682v14.262zm-18.181-29.262h-55.163v-16.515h55.163zm55.902-51.325c0 .528-.431.958-.959.958h-26.416v-87.209c0-6.43-4.746-11.758-10.916-12.704v-28.696h37.332c.528 0 .959.43.959.959z"/></g></g></g></svg>