<svg height="512pt" viewBox="0 -56 512.0055 512" width="512pt" xmlns="http://www.w3.org/2000/svg"><g fill="#f6bb42"><path d="m424 312.128906c56 0 80 40 80 40s-24 40-80 40h-64v-80zm0 0"/><path d="m392 8.128906c56 0 80 40 80 40s-24 40-80 40h-64v-80zm0 0"/><path d="m272 160.128906c56 0 80 40 80 40s-24 40-80 40h-64v-80zm0 0"/></g><path d="m342.089844 212.128906c6.703125-6.710937 9.910156-12 9.910156-12s-24-40-80-40h-64v24h64c35.679688 0 58.320312 16.21875 70.089844 28zm0 0" fill="#ffce54"/><path d="m462.089844 60.128906c6.703125-6.710937 9.910156-12 9.910156-12s-24-40-80-40h-64v24h64c35.679688 0 58.320312 16.21875 70.089844 28zm0 0" fill="#ffce54"/><path d="m494.089844 364.128906c6.703125-6.710937 9.910156-12 9.910156-12s-24-40-80-40h-64v24h64c35.679688 0 58.320312 16.21875 70.089844 28zm0 0" fill="#ffce54"/><path d="m392 16.003906h-64c-4.425781 0-8-3.578125-8-8 0-4.425781 3.574219-7.99999975 8-7.99999975h64c4.425781 0 8 3.57421875 8 7.99999975 0 4.421875-3.574219 8-8 8zm0 0"/><path d="m392 96.003906h-64c-4.425781 0-8-3.578125-8-8 0-4.425781 3.574219-8 8-8h64c4.425781 0 8 3.574219 8 8 0 4.421875-3.574219 8-8 8zm0 0"/><path d="m472.007812 56.003906c-2.71875 0-5.367187-1.386718-6.863281-3.882812-.878906-1.453125-22.640625-36.117188-73.144531-36.117188-4.425781 0-8-3.578125-8-8 0-4.425781 3.574219-7.99999975 8-7.99999975 59.839844 0 85.785156 42.09374975 86.855469 43.87890575 2.273437 3.792969 1.046875 8.703126-2.742188 10.976563-1.28125.773437-2.707031 1.144531-4.105469 1.144531zm0 0"/><path d="m392 96.003906c-4.425781 0-8-3.578125-8-8 0-4.425781 3.574219-8 8-8 50.878906 0 72.921875-35.761718 73.144531-36.121094 2.269531-3.785156 7.175781-5.023437 10.976563-2.742187 3.789062 2.269531 5.015625 7.183594 2.742187 10.972656-1.078125 1.800781-27.023437 43.890625-86.863281 43.890625zm0 0"/><path d="m328 96.003906c-4.425781 0-8-3.578125-8-8v-80c0-4.425781 3.574219-7.99999975 8-7.99999975s8 3.57421875 8 7.99999975v80c0 4.421875-3.574219 8-8 8zm0 0"/><path d="m296 16.003906h-200c-4.425781 0-8-3.578125-8-8 0-4.425781 3.574219-7.99999975 8-7.99999975h200c4.425781 0 8 3.57421875 8 7.99999975 0 4.421875-3.574219 8-8 8zm0 0"/><path d="m232 96.003906h-72c-4.425781 0-8-3.578125-8-8 0-4.425781 3.574219-8 8-8h72c4.425781 0 8 3.574219 8 8 0 4.421875-3.574219 8-8 8zm0 0"/><path d="m296 56.003906h-208c-4.425781 0-8-3.578125-8-8 0-4.425781 3.574219-8 8-8h208c4.425781 0 8 3.574219 8 8 0 4.421875-3.574219 8-8 8zm0 0"/><path d="m64 16.003906h-24c-4.425781 0-8-3.578125-8-8 0-4.425781 3.574219-7.99999975 8-7.99999975h24c4.425781 0 8 3.57421875 8 7.99999975 0 4.421875-3.574219 8-8 8zm0 0"/><path d="m296 96.003906h-32c-4.425781 0-8-3.578125-8-8 0-4.425781 3.574219-8 8-8h32c4.425781 0 8 3.574219 8 8 0 4.421875-3.574219 8-8 8zm0 0"/><path d="m328 320.257812h-88c-4.425781 0-8-3.574218-8-8 0-4.421874 3.574219-8 8-8h88c4.425781 0 8 3.578126 8 8 0 4.425782-3.574219 8-8 8zm0 0"/><path d="m272 400.257812h-128c-4.425781 0-8-3.574218-8-8 0-4.421874 3.574219-8 8-8h128c4.425781 0 8 3.578126 8 8 0 4.425782-3.574219 8-8 8zm0 0"/><path d="m328 360.257812h-160c-4.425781 0-8-3.574218-8-8 0-4.421874 3.574219-8 8-8h160c4.425781 0 8 3.578126 8 8 0 4.425782-3.574219 8-8 8zm0 0"/><path d="m208 320.257812h-112c-4.425781 0-8-3.574218-8-8 0-4.421874 3.574219-8 8-8h112c4.425781 0 8 3.578126 8 8 0 4.425782-3.574219 8-8 8zm0 0"/><path d="m328 400.257812h-24c-4.425781 0-8-3.574218-8-8 0-4.421874 3.574219-8 8-8h24c4.425781 0 8 3.578126 8 8 0 4.425782-3.574219 8-8 8zm0 0"/><path d="m272 168.003906h-64c-4.425781 0-8-3.578125-8-8 0-4.425781 3.574219-8 8-8h64c4.425781 0 8 3.574219 8 8 0 4.421875-3.574219 8-8 8zm0 0"/><path d="m272 248.003906h-64c-4.425781 0-8-3.578125-8-8 0-4.425781 3.574219-8 8-8h64c4.425781 0 8 3.574219 8 8 0 4.421875-3.574219 8-8 8zm0 0"/><path d="m352.007812 208.003906c-2.71875 0-5.367187-1.386718-6.863281-3.882812-.878906-1.453125-22.640625-36.117188-73.144531-36.117188-4.425781 0-8-3.578125-8-8 0-4.425781 3.574219-8 8-8 59.839844 0 85.785156 42.09375 86.855469 43.878906 2.273437 3.792969 1.046875 8.703126-2.742188 10.976563-1.28125.773437-2.707031 1.144531-4.105469 1.144531zm0 0"/><path d="m272 248.003906c-4.425781 0-8-3.578125-8-8 0-4.425781 3.574219-8 8-8 50.878906 0 72.921875-35.761718 73.144531-36.121094 2.261719-3.792968 7.175781-5.015624 10.976563-2.742187 3.789062 2.269531 5.015625 7.183594 2.742187 10.972656-1.078125 1.800781-27.023437 43.890625-86.863281 43.890625zm0 0"/><path d="m208 248.003906c-4.425781 0-8-3.578125-8-8v-80c0-4.425781 3.574219-8 8-8s8 3.574219 8 8v80c0 4.421875-3.574219 8-8 8zm0 0"/><path d="m424 320.003906h-64c-4.425781 0-8-3.578125-8-8 0-4.425781 3.574219-8 8-8h64c4.425781 0 8 3.574219 8 8 0 4.421875-3.574219 8-8 8zm0 0"/><path d="m424 400.003906h-64c-4.425781 0-8-3.578125-8-8 0-4.425781 3.574219-8 8-8h64c4.425781 0 8 3.574219 8 8 0 4.421875-3.574219 8-8 8zm0 0"/><path d="m504.007812 360.003906c-2.71875 0-5.367187-1.386718-6.863281-3.882812-.878906-1.453125-22.640625-36.117188-73.144531-36.117188-4.425781 0-8-3.578125-8-8 0-4.425781 3.574219-8 8-8 59.839844 0 85.785156 42.09375 86.855469 43.878906 2.273437 3.792969 1.046875 8.703126-2.742188 10.976563-1.28125.773437-2.707031 1.144531-4.105469 1.144531zm0 0"/><path d="m424 400.003906c-4.425781 0-8-3.578125-8-8 0-4.425781 3.574219-8 8-8 50.878906 0 72.921875-35.761718 73.144531-36.121094 2.269531-3.785156 7.183594-5.015624 10.976563-2.742187 3.789062 2.269531 5.015625 7.183594 2.742187 10.972656-1.078125 1.800781-27.023437 43.890625-86.863281 43.890625zm0 0"/><path d="m360 400.003906c-4.425781 0-8-3.578125-8-8v-80c0-4.425781 3.574219-8 8-8s8 3.574219 8 8v80c0 4.421875-3.574219 8-8 8zm0 0"/><path d="m136 168.003906h-88c-4.425781 0-8-3.578125-8-8 0-4.425781 3.574219-8 8-8h88c4.425781 0 8 3.574219 8 8 0 4.421875-3.574219 8-8 8zm0 0"/><path d="m176 168.003906h-16c-4.425781 0-8-3.578125-8-8 0-4.425781 3.574219-8 8-8h16c4.425781 0 8 3.574219 8 8 0 4.421875-3.574219 8-8 8zm0 0"/><path d="m176 208.003906h-168c-4.425781 0-8-3.578125-8-8 0-4.425781 3.574219-8 8-8h168c4.425781 0 8 3.574219 8 8 0 4.421875-3.574219 8-8 8zm0 0"/><path d="m176 248.003906h-72c-4.425781 0-8-3.578125-8-8 0-4.425781 3.574219-8 8-8h72c4.425781 0 8 3.574219 8 8 0 4.421875-3.574219 8-8 8zm0 0"/><path d="m72 248.003906h-40c-4.425781 0-8-3.578125-8-8 0-4.425781 3.574219-8 8-8h40c4.425781 0 8 3.574219 8 8 0 4.421875-3.574219 8-8 8zm0 0"/></svg>