<?xml version="1.0" encoding="iso-8859-1"?>
<!-- Generator: Adobe Illustrator 18.1.1, SVG Export Plug-In . SVG Version: 6.00 Build 0)  -->
<svg version="1.1" id="Capa_1" xmlns="http://www.w3.org/2000/svg" xmlns:xlink="http://www.w3.org/1999/xlink" x="0px" y="0px"
	 viewBox="0 0 25.77 25.77" style="enable-background:new 0 0 25.77 25.77;" xml:space="preserve">
<g>
	<path style="fill:#030104;" d="M0.028,21.073l0.151,3.896c0,0,0,0.281,0.359,0.281c0.231,0,1.156,0.032,1.156,0.032
		s0.201-0.028,0.201-0.144c0.001-0.114,0.003-1.06,0.003-1.06s-0.017-0.3,0.5-0.266c0.469,0.031,0.516,0.344,0.516,0.344
		s0.025,0.653,0.025,0.797s-0.058,0.344,0.229,0.344s2.415-0.002,2.415-0.002s0.258-0.057,0.258-0.229c0-0.171,0-2.082,0-2.082
		s-0.086-0.315,0.172-0.229c0.258,0.086,4.697,0.984,4.697,0.984s0.231-0.006,0.25,0.215c0.018,0.208-0.016,0.678-0.016,0.678
		s0.053,0.138,0.25,0.182c0.281,0.063,1.281,0.172,1.281,0.172s0.317-0.026,0.317-0.141c0-0.115,0.086-0.487,0.086-0.487
		s-0.018-0.135,0.269-0.106s0.575-0.005,0.575-0.005s0.23,0.058,0.23,0.173c0,0.114,0.086,0.545,0.086,0.545s0,0.266,0.306,0.245
		c0.118-0.008,1.319,0.058,1.319,0.058s0.156-0.016,0.172-0.219c0.012-0.156,0-0.47,0-0.47s0.041-0.249,0.188-0.249
		c0.281,0,1.494-0.021,1.641-0.005s0.281,0.141,0.281,0.141L18,25.143c0,0,0.096,0.112,0.211,0.141
		c0.115,0.029,1.266-0.094,1.266-0.094s0.176-0.303,0.146-0.359c-0.027-0.058,0.259-0.66,0.259-0.66s0.028-0.058,0.173-0.086
		c0.143-0.028,0.865-0.201,0.865-0.201s0.172,0.03,0.229,0.087c0.059,0.058,0.345,0.517,0.345,0.517s0,0.143,0.114,0.114
		c0.115-0.028,1.147-0.201,1.147-0.201l0.173-0.229l0.057-0.602c0,0,0.028-0.315,0.115-0.315c0.086,0,0.773-0.287,0.773-0.287
		l0.287,0.028l0.315,0.517c0,0,0.114,0.058,0.2,0.028c0.086-0.028,1.004-0.459,1.004-0.459s0.115-0.258,0.086-0.344
		c-0.028-0.086-0.243-1.49-0.243-1.49s-0.2-0.171-0.287-0.057c-0.086,0.114-2.997,1.649-6.079,1.979
		c-3.029,0.325-5.32,0.846-11.557-1.047c-1.554-0.471-6.367-0.817-7.212-1.262C0.046,20.677-0.015,20.885,0.028,21.073z"/>
	<path style="fill:#030104;" d="M24.675,17.756c-0.602-0.832-1.729-1.309-2.638-1.276c-1.606,0.058-1.588,0.795-2.724,0.444
		c-0.701-0.216-1.021-0.44-1.021-0.44s-0.273,2.481-2.098,3.141c0.491-0.872,0.447-1.825,0.563-2.734
		c0.172-1.359,0.156-2.297-1.297-2.563c-1.011-0.185-1.73-0.263-2.766-0.953s-1.488-1.683-1.755-3.862
		c-0.315-2.581-0.057-7.055-0.146-7.708C10.705,1.151,9.61,0.473,8.329,0.473s-2.316,0.789-3.45,1.036
		c-1.133,0.246-1.051-0.024-2.26,0.223c-0.69,0.141-0.674,0.705-0.674,2.561c0,0.799,0.048,5.05-0.012,6.006
		c-0.035,0.546-0.153,1.575-0.332,2.124c0,0,4.406,1.906,5.953,5.563c-2.531-3.094-6.156-4.125-6.531-4.141
		C0.382,15.126,0,16.61,0,18.111c0,1.102,0.246,1.577,0.246,1.577s0.591,0.329,2.835,0.664c0.999,0.149,3.152,0.29,4.647,0.743
		c4.677,1.413,7.534,1.362,11.198,1.008c4.088-0.396,6.332-2.028,6.332-2.028S25.302,18.621,24.675,17.756z M8.986,2.168
		c0.357,0,0.647,0.289,0.647,0.646S9.343,3.46,8.986,3.46S8.339,3.172,8.339,2.814S8.628,2.168,8.986,2.168z M8.943,5.003
		c0.357,0,0.647,0.289,0.647,0.646S9.3,6.295,8.943,6.295S8.296,6.006,8.296,5.649S8.586,5.003,8.943,5.003z M8.382,8.312
		c0-0.357,0.29-0.646,0.647-0.646s0.647,0.289,0.647,0.646s-0.29,0.647-0.647,0.647S8.382,8.67,8.382,8.312z M9.414,11.908
		c-0.357,0-0.647-0.289-0.647-0.646s0.29-0.646,0.647-0.646s0.647,0.289,0.647,0.646S9.771,11.908,9.414,11.908z M10.704,14.243
		c-0.357,0-0.647-0.289-0.647-0.646s0.29-0.646,0.647-0.646s0.647,0.289,0.647,0.646S11.062,14.243,10.704,14.243z M12.726,15.705
		c-0.357,0-0.647-0.289-0.647-0.646s0.29-0.646,0.647-0.646s0.647,0.289,0.647,0.646S13.084,15.705,12.726,15.705z M15.257,16.519
		c-0.357,0-0.646-0.289-0.646-0.646c0-0.357,0.289-0.646,0.646-0.646s0.647,0.289,0.647,0.646
		C15.904,16.23,15.615,16.519,15.257,16.519z"/>
</g>
<g>
</g>
<g>
</g>
<g>
</g>
<g>
</g>
<g>
</g>
<g>
</g>
<g>
</g>
<g>
</g>
<g>
</g>
<g>
</g>
<g>
</g>
<g>
</g>
<g>
</g>
<g>
</g>
<g>
</g>
</svg>
